0
SECTION
2
HEADER
9
$INSUNITS
70
4
9
$ACADVER
1
AC1014
9
$HANDSEED
5
FFFF
0
ENDSEC
0
SECTION
2
TABLES
0
TABLE
2
VPORT
5
8
100
AcDbSymbolTable
0
ENDTAB
0
TABLE
2
LTYPE
5
5
100
AcDbSymbolTable
0
LTYPE
5
14
100
AcDbSymbolTableRecord
100
AcDbLinetypeTableRecord
2
BYBLOCK
70
0
0
LTYPE
5
15
100
AcDbSymbolTableRecord
100
AcDbLinetypeTableRecord
2
BYLAYER
70
0
0
ENDTAB
0
TABLE
2
LAYER
5
2
100
AcDbSymbolTable
70
2
0
LAYER
5
50
100
AcDbSymbolTableRecord
100
AcDbLayerTableRecord
2
0
70
0
6
CONTINUOUS
0
ENDTAB
0
TABLE
2
STYLE
5
3
100
AcDbSymbolTable
70
1
0
STYLE
5
11
100
AcDbSymbolTableRecord
100
AcDbTextStyleTableRecord
2
STANDARD
70
0
0
ENDTAB
0
TABLE
2
VIEW
5
6
100
AcDbSymbolTable
70
0
0
ENDTAB
0
TABLE
2
UCS
5
7
100
AcDbSymbolTable
70
0
0
ENDTAB
0
TABLE
2
APPID
5
9
100
AcDbSymbolTable
70
2
0
APPID
5
12
100
AcDbSymbolTableRecord
100
AcDbRegAppTableRecord
2
ACAD
70
0
0
ENDTAB
0
TABLE
2
DIMSTYLE
5
A
100
AcDbSymbolTable
70
1
0
ENDTAB
0
TABLE
2
BLOCK_RECORD
5
1
100
AcDbSymbolTable
70
1
0
BLOCK_RECORD
5
1F
100
AcDbSymbolTableRecord
100
AcDbBlockTableRecord
2
*MODEL_SPACE
0
BLOCK_RECORD
5
1B
100
AcDbSymbolTableRecord
100
AcDbBlockTableRecord
2
*PAPER_SPACE
0
ENDTAB
0
ENDSEC
0
SECTION
2
BLOCKS
0
BLOCK
5
20
100
AcDbEntity
100
AcDbBlockBegin
2
*MODEL_SPACE
0
ENDBLK
5
21
100
AcDbEntity
100
AcDbBlockEnd
0
BLOCK
5
1C
100
AcDbEntity
100
AcDbBlockBegin
2
*PAPER_SPACE
0
ENDBLK
5
1D
100
AcDbEntity
100
AcDbBlockEnd
0
ENDSEC
0
SECTION
2
ENTITIES
0
LWPOLYLINE
5
100
100
AcDbEntity
8
0
100
AcDbPolyline
90
4
70
1
43
0.0
10
28.544658352434634
20
6.0499996550380679
10
26.144658397138119
20
6.0499996550380661
10
26.144658397138119
20
4.8499996729194592
10
28.544658352434634
20
4.849999672919461
0
LWPOLYLINE
5
101
100
AcDbEntity
8
0
100
AcDbPolyline
90
4
70
1
43
0.0
10
23.944658455252643
20
6.0499996550380652
10
21.594658397138119
20
6.0499996550380644
10
21.594658397138122
20
4.8499996729194592
10
23.944658455252647
20
4.849999672919461
0
LWPOLYLINE
5
102
100
AcDbEntity
8
0
100
AcDbPolyline
90
4
70
1
43
0.0
10
19.344658558070662
20
6.0499996550380626
10
16.994658397138124
20
6.0499996550380617
10
16.994658397138128
20
4.8499996729194592
10
19.344658558070662
20
4.849999672919461
0
LWPOLYLINE
5
103
100
AcDbEntity
8
0
100
AcDbPolyline
90
4
70
1
43
0.0
10
13.47290038431769
20
16.399999523162784
10
22.97290038431769
20
16.399999523162791
10
22.97290038431769
20
21.999999523162789
10
13.472900384317692
20
21.999999523162785
0
CIRCLE
5
104
100
AcDbEntity
8
0
100
AcDbCircle
10
10.775462945678845
20
9.0999995231627722
30
0
40
2.0700000000000007
210
-1.1451495450698689e-33
220
-5.2192639118772186e-49
230
1
0
CIRCLE
5
105
100
AcDbEntity
8
0
100
AcDbCircle
10
39.329012945678762
20
11.949999523162775
30
0
40
3.3000000000000047
210
1.9363383659498884e-33
220
-3.9443045261050599e-31
230
1
0
LWPOLYLINE
5
106
100
AcDbEntity
8
0
100
AcDbPolyline
90
4
70
1
43
0.0
10
-13.490987054321211
20
18.449999523162774
10
-13.490987054321209
20
4.7499995231627734
10
2.8090129456787944
20
4.7499995231627761
10
2.8090129456787927
20
18.449999523162774
0
LWPOLYLINE
5
107
100
AcDbEntity
8
0
100
AcDbPolyline
90
10
70
1
43
0.0
10
-18.017636277355425
20
2.9601353473707173
10
-18.094341339111331
20
11.749999523162769
10
-18.017636277355376
20
20.539863698954825
42
-0.41165998763902012
10
-13.014026792218427
20
25.499999523162771
10
42.103344113995774
20
25.499999523162849
42
-0.41165998763902018
10
47.106953599132773
20
20.539863698954839
10
47.183658660888682
20
11.749999523162797
10
47.106953599132723
20
2.9601353473707586
42
-0.41165998763902117
10
42.103344113995774
20
-2.0000004768372039
10
-13.01402679221842
20
-2.000000476837287
42
-0.41165998763901973
0
ENDSEC
0
SECTION
2
OBJECTS
0
DICTIONARY
5
C
100
AcDbDictionary
3
ACAD_GROUP
350
D
3
ACAD_MLINESTYLE
350
17
0
DICTIONARY
5
D
100
AcDbDictionary
0
DICTIONARY
5
1A
330
C
100
AcDbDictionary
0
DICTIONARY
5
17
100
AcDbDictionary
0
ENDSEC
0
EOF
